<?xml version="1.0" encoding="utf-8"?>
<!-- Generator: Adobe Illustrator 16.0.0, SVG Export Plug-In . SVG Version: 6.00 Build 0)  -->
<!DOCTYPE svg PUBLIC "-//W3C//DTD SVG 1.1//EN" "http://www.w3.org/Graphics/SVG/1.1/DTD/svg11.dtd">
<svg version="1.1" id="Layer_1" xmlns="http://www.w3.org/2000/svg" xmlns:xlink="http://www.w3.org/1999/xlink" x="0px" y="0px"
	 width="180.781px" height="24.48px" viewBox="-1.1 0 180.781 24.48" enable-background="new -1.1 0 180.781 24.48"
	 xml:space="preserve">
<path d="M12.929,2.529C12.929,0.506,10.997,0,9.472,0v0.304c0.915,0,1.627,0.303,1.627,1.011c0,0.405-0.305,1.012-1.221,1.012
	c-0.711,0-2.236-0.405-3.355-0.81c-1.321-0.506-2.542-0.91-3.559-0.91c-2.033,0-3.457,1.517-3.457,3.237
	c0,1.517,1.118,2.023,1.525,2.225l0.102-0.202C0.931,5.665,0.625,5.462,0.625,4.855c0-0.405,0.407-1.113,1.424-1.113
	c0.915,0,2.136,0.405,3.762,0.91c1.425,0.405,2.949,0.708,3.763,0.81v3.136L8.048,9.914v0.101l1.525,1.315v4.35
	c-0.813,0.506-1.729,0.606-2.542,0.606c-1.525,0-2.847-0.405-3.966-1.618l4.17-2.023V5.665L2.15,7.891
	c0.407-1.315,1.525-2.226,2.644-2.833L4.692,4.754c-3.05,0.809-5.796,3.642-5.796,7.081c0,4.045,3.355,7.081,7.118,7.081
	c4.067,0,6.711-3.236,6.711-6.575h-0.203c-0.61,1.315-1.525,2.529-2.645,3.137V11.33l1.627-1.315V9.914L9.878,8.598V5.462
	C11.403,5.462,12.929,4.451,12.929,2.529z M4.083,13.656l-1.221,0.606c-0.712-0.91-1.119-2.124-1.119-3.843
	c0-0.708,0-1.518,0.204-2.125l2.136-0.911V13.656z M14.861,15.983l-1.322,1.011l0.203,0.203l0.61-0.506l2.237,2.022l3.05-2.022
	l-0.102-0.203l-0.813,0.506l-1.017-1.011V9.104l0.813-0.607l1.729,1.417v6.17c0,3.844-0.813,4.451-2.542,5.058v0.304
	c2.847,0.102,5.491-0.81,5.491-5.766V9.003l0.915-0.708l-0.203-0.202l-0.813,0.606l-2.543-2.124l-2.847,2.124V0.404h-0.203
	l-3.56,2.428v0.202c0.407,0.202,1.018,0.404,1.018,1.517L14.861,15.983z M33.47,14.87l-2.543,1.922l-2.542-2.023v-1.214l4.779-3.237
	v-0.101l-2.44-3.642l-5.287,2.833v6.676l-1.017,0.809l0.202,0.203l0.916-0.708l3.457,2.528l4.576-3.641L33.47,14.87z M28.385,13.151
	V8.194l0.204-0.101l2.236,3.54L28.385,13.151z M52.891,1.619c0-0.304-0.102-0.607-0.203-0.911h-0.203
	c-0.306,0.809-0.712,1.214-1.729,1.214c-0.915,0-1.525-0.506-1.933-0.911L45.875,4.35l0.203,0.202l1.017-0.91
	c0.61,0.506,1.119,0.91,2.542,1.011v8.396L43.638,2.833c-0.509-0.81-1.221-1.922-2.644-1.922c-1.627,0-3.051,1.417-2.848,3.642
	h0.306c0.102-0.607,0.406-1.315,1.118-1.315c0.509,0,1.017,0.506,1.321,1.012v3.338c-1.83,0-3.05,0.81-3.05,2.327
	c0,0.809,0.407,2.023,1.627,2.327v-0.203c-0.203-0.202-0.305-0.405-0.305-0.708c0-0.505,0.406-0.91,1.118-0.91h0.509v4.249
	c-2.136,0-3.864,1.213-3.864,3.237c0,1.921,1.627,2.832,3.457,2.73v-0.202c-1.118-0.101-1.627-0.607-1.627-1.315
	c0-0.909,0.61-1.314,1.424-1.314s1.525,0.505,2.033,1.112l2.949-3.236l-0.204-0.202l-0.711,0.809
	c-1.119-1.011-1.729-1.314-3.051-1.518V4.653l8.135,14.163h0.61V4.653C51.468,4.552,52.891,3.338,52.891,1.619z M60.313,14.87
	l-2.542,1.922l-2.542-2.023v-1.214l4.779-3.237v-0.101l-2.44-3.642l-5.287,2.833v6.676l-1.018,0.809l0.204,0.203l0.915-0.708
	l3.457,2.528l4.576-3.641L60.313,14.87z M55.229,13.151V8.194l0.204-0.101l2.236,3.54L55.229,13.151z M76.889,7.688l-0.712,0.506
	l-1.932-1.619l-2.237,2.023l0.915,0.911v7.587l-2.44-1.518V9.307l0.813-0.506l-2.339-2.226l-2.236,2.023l0.915,0.911v7.283
	l-0.306,0.202l-2.135-1.517v-6.07c0-1.417-0.712-1.821-1.525-2.327c-0.712-0.506-1.119-0.81-1.119-1.518
	c0-0.607,0.61-0.911,0.915-1.113V4.249c-0.813,0-2.948,0.809-2.948,2.731c0,1.011,0.508,1.416,1.017,1.922s1.017,0.91,1.017,1.821
	v5.867l-1.118,0.809l0.203,0.202l1.018-0.809l2.338,2.023l2.542-1.72l2.848,1.72l5.39-3.136V8.902l1.321-1.011L76.889,7.688z
	 M95.801,2.124l-1.017,0.911l-2.236-2.023l-3.355,2.428V1.214h-0.305l0.102,16.387c-0.306,0-1.221-0.202-1.933-0.403L86.854,3.54
	c0-1.011-0.712-2.427-2.542-2.427s-3.051,1.416-3.051,2.832h0.305c0.103-0.607,0.407-1.112,1.018-1.112
	c0.609,0,1.118,0.404,1.118,1.719v3.945c-1.83,0.102-2.948,1.113-2.948,2.429c0,0.809,0.406,2.023,1.627,2.023v-0.202
	c-0.407-0.203-0.509-0.506-0.509-0.708c0-0.607,0.509-0.809,1.321-0.809H83.6v6.272c-1.525,0.505-2.135,1.617-2.135,2.832
	c0,1.719,1.321,2.934,3.355,2.934c1.423,0,2.644-0.202,3.863-0.506c1.017-0.202,2.339-0.506,2.949-0.506
	c0.813,0,1.118,0.404,1.118,0.91c0,0.708-0.305,1.012-0.712,1.113v0.202c1.627-0.304,2.644-1.315,2.644-2.833
	c0-1.517-1.524-2.427-3.151-2.427c-0.813,0-2.542,0.303-3.763,0.506c-1.424,0.303-2.847,0.505-3.254,0.505
	c-0.712,0-1.525-0.304-1.525-1.315c0-0.81,0.712-1.518,2.44-1.518c0.915,0,2.034,0.103,3.152,0.405
	c1.221,0.303,2.339,0.606,3.355,0.606c1.525,0,2.847-0.505,2.847-2.63V3.338l1.221-1.011L95.801,2.124L95.801,2.124z M91.633,8.295
	c-0.306,0.303-0.712,0.607-1.221,0.607c-0.508,0-1.017-0.304-1.22-0.607V3.844l1.017-0.708l1.424,1.314V8.295z M91.633,11.33
	c-0.203-0.203-0.712-0.505-1.221-0.505c-0.508,0-1.017,0.303-1.22,0.505v-2.63c0.203,0.203,0.712,0.506,1.22,0.506
	c0.509,0,1.018-0.304,1.221-0.506V11.33z M91.633,16.084c0,0.809-0.509,1.619-1.627,1.619h-0.813v-5.969
	c0.203-0.203,0.712-0.506,1.22-0.506c0.509,0,0.915,0.303,1.221,0.506V16.084L91.633,16.084z M105.563,8.902l-3.255-2.327
	l-4.982,2.833v6.576l-1.017,0.809l0.102,0.202l0.813-0.606l3.254,2.428l5.085-3.035V8.902z M100.071,15.275V7.991l2.543,1.821v7.182
	L100.071,15.275z M115.223,6.778h-0.203c-0.305,0.202-0.61,0.404-0.915,0.404c-0.406,0-0.915-0.202-1.118-0.506h-0.204l-1.729,1.922
	l-1.729-1.922l-3.05,2.023l0.102,0.203l0.813-0.506l1.017,1.113v6.372l-1.321,1.012l0.204,0.203l0.609-0.506l2.44,2.023l3.152-2.125
	l-0.102-0.202l-0.916,0.506l-1.22-1.012V8.699c0.508,0.506,1.119,1.012,1.83,1.012C114.308,9.812,115.121,8.396,115.223,6.778
	L115.223,6.778z M127.425,16.488l-3.457,2.327l-4.678-7.081l3.355-5.159h0.204c0.406,0.405,1.017,0.809,1.728,0.809
	c0.712,0,1.221-0.404,1.525-0.809h0.203c-0.101,2.023-1.524,3.237-2.542,3.237c-1.017,0-1.525-0.505-2.135-0.809l-0.305,0.506
	l5.084,7.485l1.017-0.606V16.488z M116.24,15.983l-1.323,1.011l0.204,0.203l0.61-0.506l2.236,2.022l3.051-2.022l-0.203-0.203
	l-0.813,0.506l-1.018-1.011V0.404h-0.101l-3.661,2.428v0.202c0.406,0.202,1.018,0.303,1.018,1.517V15.983z M144.305,2.529
	c0-2.023-1.933-2.529-3.458-2.529v0.304c0.916,0,1.628,0.303,1.628,1.011c0,0.405-0.305,1.012-1.221,1.012
	c-0.712,0-2.237-0.405-3.355-0.81c-1.321-0.404-2.542-0.809-3.559-0.809c-2.034,0-3.458,1.518-3.458,3.237
	c0,1.518,1.119,2.023,1.525,2.226l0.103-0.203c-0.306-0.202-0.611-0.404-0.611-1.011c0-0.405,0.407-1.112,1.425-1.112
	c0.914,0,2.135,0.404,3.762,0.91c1.423,0.405,2.948,0.708,3.762,0.809v3.136l-1.525,1.315v0.102l1.525,1.315v4.35
	c-0.813,0.506-1.728,0.607-2.542,0.607c-1.525,0-2.847-0.404-3.965-1.619l4.168-2.022V5.665l-5.084,2.226
	c0.509-1.315,1.628-2.226,2.645-2.934l-0.103-0.202c-3.05,0.809-5.796,3.541-5.796,6.98c0,4.046,3.356,7.081,7.118,7.081
	c4.067,0,6.712-3.237,6.712-6.575h-0.204c-0.609,1.314-1.525,2.528-2.644,3.135v-4.146l1.627-1.315V9.812l-1.525-1.315V5.462
	C142.779,5.462,144.305,4.451,144.305,2.529z M135.458,13.656l-1.221,0.606c-0.711-0.91-1.118-2.124-1.118-3.843
	c0-0.708,0.102-1.518,0.305-2.125l2.136-0.911L135.458,13.656z M147.863,1.517h-0.102l-2.033,1.72v0.101l1.728,1.922h0.204
	l2.033-1.72V3.439L147.863,1.517z M150.914,16.488l-0.813,0.506l-1.017-1.011v-6.98l1.017-0.708l-0.203-0.202l-0.712,0.606
	l-1.83-2.124l-2.95,2.023l0.204,0.304l0.712-0.506l0.916,1.113v6.575l-1.323,1.012l0.103,0.202l0.712-0.506l2.236,2.023l3.051-2.023
	L150.914,16.488z M167.896,16.388l-0.712,0.505l-1.118-1.012V9.003l1.017-0.809l-0.203-0.203l-0.813,0.708l-2.34-2.124l-3.051,2.124
	l-2.338-2.124l-2.848,2.124l-1.83-2.124l-2.949,2.023l0.103,0.304l0.711-0.506l1.017,1.113v6.575l-0.813,0.809l2.338,1.923
	l2.237-2.023l-0.914-0.911V9.003l0.914-0.607l1.525,1.416v6.069l-0.813,0.811l2.339,1.922l2.237-2.023l-0.916-0.91V9.003
	l0.814-0.506l1.627,1.417v6.07l-0.712,0.708l2.338,2.124l3.153-2.124V16.388z"/>
<polygon points="169.698,7.088 167.57,9.216 168.96,10.001 173.078,5.85 172.93,5.459 170.63,7.666 "/>
<path d="M179.579,12.24l-1.933-1.518c1.323-1.113,1.831-2.63,1.831-3.642V6.474h-0.203c-0.204,0.506-0.611,1.012-1.424,1.012
	c-0.813,0-1.322-0.404-1.83-1.012l-4.576,2.529v3.642l1.729,1.315c-1.729,1.518-2.033,2.528-2.033,3.338
	c0,1.011,0.508,1.721,1.321,2.023l0.102-0.203c-0.203-0.202-0.406-0.303-0.406-0.81c0-0.303,0.406-0.808,1.221-0.808
	c1.017,0,1.626,0.708,1.931,1.011l4.373-2.631V12.24H179.579z M178.461,9.206c-0.712,1.214-2.237,2.427-3.153,3.035l-1.117-0.911
	V7.789c0.405,1.012,1.524,1.821,2.643,1.821C177.545,9.61,177.952,9.509,178.461,9.206z M176.732,17.298
	c-0.509-1.112-1.729-1.923-2.949-1.923c-0.306,0-1.118,0-1.932,0.506c0.508-0.809,1.83-2.225,3.559-3.236l1.22,1.012L176.732,17.298
	z"/>
</svg>
